# xmcd CD database file
#
# Track frame offsets:
#	150
#	34914
#	56834
#	92746
#	156676
#	187627
#	209583
#	227651
#	247784
#	279981
#
# Disc length: 4269 seconds
#
# Revision: 0
# Processed by: cddbd v1.5.1PL0 Copyright (c) Steve Scherf et al.
# Submitted via: CDex 1.50beta10
#
DISCID=8510ab0a
DTITLE=The Nimmo Brothers - Live - Cottiers Theatre Glasgow
DYEAR=2004
DGENRE=Blues
TTITLE0=She's All Mine
TTITLE1=I'll Be Back Someday
TTITLE2=Long Way From Everything
TTITLE3=So Many Roads
TTITLE4=The Thrill Is Gone
TTITLE5=Flat Broke
TTITLE6=Moving On
TTITLE7=Watch Out
TTITLE8=If I Could See Through Your Eyes
TTITLE9=Help Me
EXTD=YEAR: 2004
EXTT0=
EXTT1=
EXTT2=
EXTT3=
EXTT4=
EXTT5=
EXTT6=
EXTT7=
EXTT8=
EXTT9=
PLAYORDER=
